<?xml version="1.0" encoding="UTF-8"?>
<svg id="Layer_2" data-name="Layer 2" xmlns="http://www.w3.org/2000/svg"
  viewBox="0 0 1698.32 274.41">
  <defs>
    <style>
      .cls-1 {
      fill: #fff;
      stroke-width: 0px;
      }
    </style>
  </defs>
  <g id="Layer_3" data-name="Layer 3">
    <g>
      <g>
        <polygon class="cls-1"
          points="0 0 41.73 72.25 62.09 107.51 137.34 237.88 158.43 274.41 243.38 274.41 200.93 200.89 126.68 72.34 84.95 0 0 0" />
        <path class="cls-1"
          d="M221.91,164.48l-21.02,36.38h84.38s55.51-95.25,55.51-95.25l12.78-21.92c1.93-3.31,1.94-7.39.02-10.71L314.53,5.33C312.62,2.03,309.1,0,305.29,0h-137.46s-40.83,72.34-40.83,72.34h148.15s-53.25,92.14-53.25,92.14Z" />
      </g>
      <g>
        <path class="cls-1"
          d="M547.97,36.1h55.88l-69.48,202.2h-62.87l-69.49-202.2h55.89l44.85,145.22,45.22-145.22Z" />
        <path class="cls-1"
          d="M713.41,31.69c33.09,0,59.25,11.39,78.49,34.19,19.24,22.79,27.51,51.1,24.82,84.93h-155.15c1.71,15.69,7.36,27.7,16.91,36.03,9.56,8.34,21.44,12.5,35.66,12.5,10.29,0,19.48-2.26,27.57-6.8,8.09-4.53,13.85-10.72,17.28-18.57h54.41c-7.11,22.8-19.61,39.95-37.5,51.47-17.89,11.52-38.36,17.28-61.4,17.28-31.37,0-56.98-9.93-76.84-29.78-19.86-19.86-29.78-44.98-29.78-75.37s9.92-55.64,29.78-75.74c19.86-20.09,45.1-30.14,75.74-30.14ZM713.05,75.07c-12.5,0-22.92,3.37-31.25,10.11-8.34,6.75-14.22,15.75-17.65,27.02h96.69c-2.94-11.27-8.58-20.28-16.91-27.02-8.34-6.74-18.63-10.11-30.88-10.11Z" />
        <path class="cls-1"
          d="M960.47,31.69c22.79,0,40.68,7.11,53.67,21.32,12.99,14.21,19.49,33.7,19.49,58.46v126.84h-52.57v-115.44c0-13.73-2.94-24.02-8.82-30.89-5.88-6.86-15.57-10.29-29.04-10.29-30.4,0-45.59,16.79-45.59,50.37v106.25h-52.57V36.1h52.57v27.57c15.19-21.32,36.15-31.98,62.87-31.98Z" />
        <path class="cls-1"
          d="M1159.73,242.72c-27.21,0-49.88-6.3-68.01-18.93-18.14-12.62-29.04-29.96-32.72-52.02h53.31c4.41,18.14,20.71,27.21,48.9,27.21,22.79,0,34.19-5.52,34.19-16.54,0-1.47-.18-2.82-.55-4.04-.37-1.23-.98-2.33-1.84-3.31-.86-.98-1.78-1.89-2.76-2.75-.98-.86-2.39-1.66-4.23-2.39-1.84-.73-3.49-1.34-4.96-1.84-1.47-.49-3.62-1.1-6.43-1.84-2.82-.74-5.27-1.35-7.36-1.84-2.08-.49-4.96-1.1-8.64-1.84-3.68-.73-6.86-1.47-9.56-2.2-30.15-7.11-51.17-14.89-63.05-23.35-11.89-8.46-17.83-21.14-17.83-38.05,0-21.07,8.02-37.55,24.08-49.45,16.05-11.88,37.56-17.83,64.52-17.83s47.91,5.82,62.87,17.46c14.95,11.64,24.27,27.39,27.94,47.25h-53.31c-4.41-13.73-17.52-20.59-39.34-20.59s-33.83,5.64-33.83,16.91c0,4.41,2.33,7.6,6.99,9.56,4.65,1.96,15.19,4.78,31.62,8.46,16.42,3.68,29.41,7.05,38.97,10.11,9.56,3.07,18.62,7.05,27.2,11.95,8.58,4.91,14.71,10.79,18.38,17.64,3.68,6.87,5.52,15.2,5.52,25,0,21.82-8.45,38.48-25.37,50-16.91,11.52-38.48,17.28-64.71,17.28Z" />
        <path class="cls-1"
          d="M1427.74,36.1h52.57l-.37,202.2h-52.57v-27.21c-15.44,21.08-36.52,31.62-63.24,31.62s-48.78-9.86-66.17-29.59c-17.41-19.73-26.1-45.04-26.1-75.92s8.76-56.19,26.28-75.92c17.52-19.72,39.39-29.59,65.62-29.59s48.28,10.91,63.97,32.72v-28.31ZM1375.9,192.72c14.95,0,27.33-5.14,37.13-15.44,9.8-10.29,14.71-23.65,14.71-40.07s-4.91-29.78-14.71-40.07c-9.8-10.29-22.18-15.44-37.13-15.44s-27.21,5.15-36.76,15.44c-9.56,10.29-14.34,23.66-14.34,40.07s4.84,29.78,14.52,40.07c9.68,10.3,21.87,15.44,36.58,15.44Z" />
        <path class="cls-1"
          d="M1608.25,242.72c-27.21,0-49.88-6.3-68.01-18.93-18.14-12.62-29.04-29.96-32.72-52.02h53.31c4.41,18.14,20.71,27.21,48.9,27.21,22.79,0,34.19-5.52,34.19-16.54,0-1.47-.18-2.82-.55-4.04-.37-1.23-.98-2.33-1.84-3.31-.86-.98-1.78-1.89-2.76-2.75-.98-.86-2.39-1.66-4.23-2.39-1.84-.73-3.49-1.34-4.96-1.84-1.47-.49-3.62-1.1-6.43-1.84-2.82-.74-5.27-1.35-7.35-1.84-2.09-.49-4.96-1.1-8.64-1.84-3.68-.73-6.87-1.47-9.56-2.2-30.15-7.11-51.17-14.89-63.05-23.35-11.89-8.46-17.83-21.14-17.83-38.05,0-21.07,8.03-37.55,24.08-49.45,16.05-11.88,37.56-17.83,64.52-17.83s47.92,5.82,62.87,17.46c14.94,11.64,24.26,27.39,27.94,47.25h-53.31c-4.41-13.73-17.52-20.59-39.34-20.59s-33.82,5.64-33.82,16.91c0,4.41,2.32,7.6,6.98,9.56,4.65,1.96,15.19,4.78,31.62,8.46,16.42,3.68,29.41,7.05,38.97,10.11,9.56,3.07,18.62,7.05,27.21,11.95,8.57,4.91,14.7,10.79,18.38,17.64,3.68,6.87,5.51,15.2,5.51,25,0,21.82-8.45,38.48-25.37,50-16.91,11.52-38.48,17.28-64.71,17.28Z" />
      </g>
    </g>
  </g>
</svg>